<svg xmlns="http://www.w3.org/2000/svg" viewBox="0 0 64 64">
  <!-- Caja de regalo base (magenta) -->
  <rect x="18" y="28" width="28" height="20" rx="2" fill="#D946EF"/>

  <!-- Tapa de la caja (morado) -->
  <rect x="16" y="22" width="32" height="8" rx="2" fill="#7C3AED"/>

  <!-- Cinta vertical (dorado) -->
  <rect x="30" y="22" width="4" height="26" fill="#FBBF24"/>

  <!-- Cinta horizontal (dorado) -->
  <rect x="16" y="28" width="32" height="4" fill="#FBBF24"/>

  <!-- Lazo izquierdo -->
  <ellipse cx="24" cy="18" rx="6" ry="4" fill="#FBBF24" opacity="0.9"/>

  <!-- Lazo derecho -->
  <ellipse cx="40" cy="18" rx="6" ry="4" fill="#FBBF24" opacity="0.9"/>

  <!-- Centro del lazo -->
  <circle cx="32" cy="18" r="3" fill="#F59E0B"/>

  <!-- Confeti 1 -->
  <circle cx="12" cy="14" r="2" fill="#EC4899"/>

  <!-- Confeti 2 -->
  <rect x="50" y="12" width="3" height="3" rx="0.5" fill="#8B5CF6" transform="rotate(45 51.5 13.5)"/>

  <!-- Confeti 3 -->
  <circle cx="14" cy="36" r="1.5" fill="#FBBF24"/>

  <!-- Confeti 4 -->
  <circle cx="52" cy="38" r="1.5" fill="#EC4899"/>

  <!-- Estrella de brillo -->
  <path d="M32 8 L33.5 11 L37 11.5 L34.5 14 L35 17.5 L32 16 L29 17.5 L29.5 14 L27 11.5 L30.5 11 Z" fill="#FCD34D"/>
</svg>